<?xml version="1.0" standalone="no"?>
<!DOCTYPE svg PUBLIC "-//W3C//DTD SVG 20010904//EN"
 "http://www.w3.org/TR/2001/REC-SVG-20010904/DTD/svg10.dtd">
<svg version="1.0" xmlns="http://www.w3.org/2000/svg"
 width="860.000000pt" height="860.000000pt" viewBox="0 0 860.000000 860.000000"
 preserveAspectRatio="xMidYMid meet">
<metadata>
Created by potrace 1.11, written by Peter Selinger 2001-2013
</metadata>
<g transform="translate(0.000000,860.000000) scale(0.100000,-0.100000)"
fill="#000000" stroke="none">
<path d="M2654 7881 c-320 -87 -556 -379 -639 -791 -35 -170 -30 -466 11 -665
43 -213 161 -488 281 -655 315 -439 730 -614 1115 -470 122 45 268 166 355
292 150 217 216 455 216 773 0 298 -57 539 -193 810 -82 164 -170 287 -289
405 -150 148 -290 238 -456 290 -102 32 -302 38 -401 11z"/>
<path d="M5605 7879 c-101 -25 -260 -102 -349 -170 -133 -101 -280 -266 -372
-419 -75 -124 -179 -371 -200 -475 -1 -5 -7 -30 -13 -53 -42 -153 -55 -488
-26 -658 49 -288 178 -535 354 -680 83 -69 224 -138 325 -160 118 -25 264 -15
387 26 163 54 296 139 431 273 228 226 389 537 459 883 27 137 37 423 19 558
-60 459 -322 804 -667 880 -98 22 -248 20 -348 -5z"/>
<path d="M900 5834 c-36 -7 -108 -35 -160 -60 -79 -40 -109 -62 -180 -133 -95
-97 -136 -160 -191 -296 -52 -129 -69 -231 -69 -411 1 -374 144 -721 415
-1003 156 -163 345 -277 540 -327 89 -23 113 -25 225 -20 138 5 191 19 310 82
258 135 424 458 424 824 0 266 -92 558 -253 803 -107 164 -282 333 -438 425
-74 44 -217 98 -305 116 -93 19 -230 19 -318 0z"/>
<path d="M7379 5835 c-103 -21 -259 -87 -356 -151 -124 -82 -302 -262 -384
-389 -254 -392 -320 -819 -187 -1200 32 -92 82 -180 157 -273 63 -78 190 -162
313 -207 61 -23 94 -28 198 -32 111 -4 136 -2 225 21 197 51 353 144 520 311
174 174 288 360 366 598 50 152 69 270 69 433 0 292 -84 517 -260 695 -71 71
-101 94 -180 133 -52 25 -126 53 -165 61 -85 18 -227 18 -316 0z"/>
<path d="M4115 5184 c-191 -29 -386 -118 -552 -251 -179 -142 -341 -333 -603
-711 -232 -334 -349 -477 -507 -617 -90 -81 -310 -261 -443 -362 -92 -70 -245
-213 -325 -303 -231 -259 -345 -560 -345 -913 0 -336 126 -645 365 -896 173
-181 362 -300 593 -375 148 -47 209 -57 408 -63 289 -8 404 9 932 138 411 100
487 113 672 113 188 0 262 -12 618 -100 531 -130 608 -144 868 -151 250 -7
352 6 535 67 251 83 441 208 624 412 143 158 245 356 300 578 26 104 31 380
10 515 -40 260 -153 485 -350 703 -62 68 -266 250 -361 322 -122 93 -263 207
-369 301 -171 150 -263 260 -485 579 -266 380 -365 505 -532 666 -212 204
-446 323 -698 354 -111 13 -244 11 -355 -6z"/>
</g>
</svg>
